<svg width="1920" height="301" viewBox="0 0 1920 301" fill="none" xmlns="http://www.w3.org/2000/svg">
<path fill-rule="evenodd" clip-rule="evenodd" d="M1922 180.103L1841.92 192.109C1761.83 204.116 1601.67 228.13 1441.5 246.14C1281.33 264.15 1121.17 276.157 961 288.164C800.833 300.171 640.667 312.178 480.5 282.161C320.333 252.144 160.167 180.103 80.0833 144.082L0 108.062V0H80.0833C160.167 0 320.333 0 480.5 0C640.667 0 800.833 0 961 0C1121.17 0 1281.33 0 1441.5 0C1601.67 0 1761.83 0 1841.92 0H1922V180.103Z" fill="#F1F1F1"/>
</svg>
